<svg xmlns="http://www.w3.org/2000/svg" width="200" height="200" viewBox="0 0 31 31" shape-rendering="crispEdges"><path fill="#ffffff" d="M0 0h31v31H0z"/><path stroke="#111111" d="M1 1.5h7m4 0h1m1 0h3m3 0h1m2 0h7M1 2.5h1m5 0h1m2 0h2m2 0h6m3 0h1m5 0h1M1 3.5h1m1 0h3m1 0h1m1 0h2m1 0h1m1 0h1m1 0h1m2 0h2m2 0h1m1 0h3m1 0h1M1 4.5h1m1 0h3m1 0h1m1 0h1m1 0h1m3 0h2m1 0h1m1 0h1m2 0h1m1 0h3m1 0h1M1 5.5h1m1 0h3m1 0h1m1 0h1m1 0h1m4 0h2m3 0h1m1 0h1m1 0h3m1 0h1M1 6.5h1m5 0h1m1 0h1m9 0h1m1 0h1m1 0h1m5 0h1M1 7.5h7m1 0h1m1 0h1m1 0h1m1 0h1m1 0h1m1 0h1m1 0h1m1 0h7M9 8.5h5m1 0h1m1 0h1m1 0h2M1 9.5h1m1 0h5m2 0h4m7 0h1m1 0h5M2 10.5h1m1 0h1m1 0h1m3 0h1m3 0h3m3 0h1m1 0h1m1 0h3m1 0h2M3 11.5h1m3 0h1m1 0h2m3 0h6m2 0h1m1 0h1m2 0h1M3 12.5h3m4 0h1m2 0h2m1 0h2m5 0h4m1 0h1M1 13.5h2m1 0h1m2 0h4m1 0h2m1 0h7m2 0h2M1 14.5h3m5 0h4m4 0h2m1 0h1m1 0h6m1 0h1M3 15.5h1m3 0h6m3 0h1m2 0h1m3 0h3M1 16.5h1m6 0h1m6 0h2m3 0h1m1 0h2m1 0h1m3 0h1M3 17.5h1m2 0h2m1 0h2m1 0h1m5 0h1m1 0h1m4 0h3M1 18.5h1m1 0h2m1 0h1m1 0h1m1 0h2m1 0h6m1 0h3m1 0h3M1 19.5h1m3 0h3m3 0h7m1 0h1m1 0h1m4 0h2M1 20.5h1m1 0h2m1 0h1m1 0h2m1 0h2m1 0h1m1 0h1m3 0h1m1 0h1m5 0h1M1 21.5h1m2 0h2m1 0h3m1 0h3m1 0h4m2 0h7M9 22.5h1m3 0h1m3 0h2m1 0h2m3 0h2M1 23.5h7m2 0h1m1 0h2m2 0h6m1 0h1m1 0h1M1 24.5h1m5 0h1m1 0h1m5 0h3m1 0h3m3 0h2m1 0h2M1 25.5h1m1 0h3m1 0h1m1 0h1m2 0h2m2 0h1m1 0h1m2 0h5m2 0h1M1 26.5h1m1 0h3m1 0h1m1 0h1m1 0h1m1 0h3m1 0h1m1 0h4m4 0h3M1 27.5h1m1 0h3m1 0h1m1 0h4m3 0h5m2 0h6M1 28.5h1m5 0h1m2 0h2m1 0h1m2 0h1m2 0h1m1 0h1m2 0h1m1 0h1m1 0h1M1 29.5h7m1 0h5m1 0h2m3 0h1m2 0h1m1 0h1"/></svg>
